<svg width="320" height="273" viewBox="0 0 320 273" fill="none" xmlns="http://www.w3.org/2000/svg">
<mask id="mask0_407_214" style="mask-type:luminance" maskUnits="userSpaceOnUse" x="0" y="0" width="320" height="273">
<path d="M320 0H0V273H320V0Z" fill="white"/>
</mask>
<g mask="url(#mask0_407_214)">
<path d="M165.675 243.52C240.819 243.52 301.734 191.146 301.734 126.539C301.734 61.9319 240.819 9.55774 165.675 9.55774C90.5312 9.55774 29.6146 61.9319 29.6146 126.539C29.6146 191.146 90.5312 243.52 165.675 243.52Z" stroke="#D1E8F7" stroke-width="1.91649" stroke-miterlimit="10"/>
<path d="M54.9872 61.9714C57.634 61.9714 59.7796 60.1267 59.7796 57.851C59.7796 55.5754 57.634 53.731 54.9872 53.731C52.3408 53.731 50.1952 55.5754 50.1952 57.851C50.1952 60.1267 52.3408 61.9714 54.9872 61.9714Z" fill="#FEBB94"/>
<path d="M301.734 135.114C304.382 135.114 306.529 133.27 306.529 130.994C306.529 128.719 304.382 126.874 301.734 126.874C299.09 126.874 296.943 128.719 296.943 130.994C296.943 133.27 299.09 135.114 301.734 135.114Z" fill="#5661AE"/>
<path d="M171.256 247.64C173.902 247.64 176.048 245.795 176.048 243.52C176.048 241.244 173.902 239.4 171.256 239.4C168.609 239.4 166.464 241.244 166.464 243.52C166.464 245.795 168.609 247.64 171.256 247.64Z" fill="#1C85E8"/>
<path d="M168.827 214.574C224.883 214.574 270.325 175.504 270.325 127.309C270.325 79.1141 224.883 40.0444 168.827 40.0444C112.771 40.0444 67.3296 79.1141 67.3296 127.309C67.3296 175.504 112.771 214.574 168.827 214.574Z" stroke="#D1E8F7" stroke-width="1.42966" stroke-miterlimit="10"/>
<path d="M268.585 147.961C270.559 147.961 272.159 146.585 272.159 144.888C272.159 143.19 270.559 141.814 268.585 141.814C266.61 141.814 265.01 143.19 265.01 144.888C265.01 146.585 266.61 147.961 268.585 147.961Z" fill="#FEBB94"/>
<path d="M74.6899 163.178C76.6645 163.178 78.265 161.802 78.265 160.104C78.265 158.406 76.6645 157.03 74.6899 157.03C72.7157 157.03 71.1152 158.406 71.1152 160.104C71.1152 161.802 72.7157 163.178 74.6899 163.178Z" fill="#5661AE"/>
<path d="M123.363 52.2802C125.338 52.2802 126.938 50.9042 126.938 49.2065C126.938 47.5091 125.338 46.1331 123.363 46.1331C121.389 46.1331 119.788 47.5091 119.788 49.2065C119.788 50.9042 121.389 52.2802 123.363 52.2802Z" fill="#1C85E8"/>
<path d="M221.653 223.944H104.439C99.3539 223.944 95.6278 220.399 96.1168 216.027L116.126 37.0637C116.615 32.6915 121.133 29.1471 126.219 29.1471H243.432C248.518 29.1471 252.244 32.6915 251.755 37.0637L231.745 216.027C231.257 220.399 226.738 223.944 221.653 223.944Z" fill="#1C85E8"/>
<path d="M213.392 223.944H96.1783C91.0934 223.944 87.3674 220.399 87.856 216.027L107.865 37.0637C108.354 32.6915 112.873 29.1471 117.958 29.1471H235.172C240.257 29.1471 243.983 32.6915 243.494 37.0637L223.485 216.027C222.996 220.399 218.477 223.944 213.392 223.944Z" fill="url(#paint0_linear_407_214)"/>
<path d="M208.95 217.995H101.951C97.2382 217.995 93.7849 214.71 94.2379 210.658L113.046 42.4332C113.5 38.3813 117.687 35.0968 122.4 35.0968H229.399C234.112 35.0968 237.565 38.3813 237.112 42.4332L218.304 210.658C217.85 214.71 213.663 217.995 208.95 217.995Z" fill="white"/>
<path d="M217.531 111.625L102.748 111.537C102.279 111.548 101.813 111.473 101.38 111.317C100.948 111.16 100.56 110.926 100.241 110.631C99.9218 110.335 99.6802 109.984 99.5314 109.602C99.3827 109.219 99.3308 108.814 99.3789 108.413L105.567 49.3353C105.679 48.4827 106.15 47.695 106.891 47.1207C107.632 46.546 108.592 46.2247 109.59 46.2166L224.373 46.3043C224.841 46.2935 225.308 46.3685 225.74 46.5248C226.172 46.6813 226.561 46.9149 226.88 47.2107C227.199 47.5065 227.44 47.8571 227.589 48.2397C227.738 48.622 227.79 49.0274 227.742 49.4286L221.554 108.506C221.442 109.359 220.97 110.146 220.229 110.721C219.488 111.295 218.529 111.617 217.531 111.625Z" fill="url(#paint1_linear_407_214)"/>
<path d="M213.917 175.282H165.402C165.045 175.288 164.689 175.227 164.361 175.105C164.032 174.983 163.738 174.802 163.498 174.574C163.258 174.345 163.078 174.076 162.97 173.782C162.862 173.489 162.828 173.179 162.871 172.874L168.762 120.187C168.847 119.534 169.205 118.929 169.77 118.486C170.334 118.043 171.067 117.792 171.831 117.779H220.346C220.704 117.773 221.059 117.833 221.387 117.955C221.716 118.077 222.01 118.259 222.25 118.487C222.49 118.715 222.67 118.985 222.778 119.278C222.887 119.572 222.92 119.882 222.877 120.187L216.986 172.874C216.901 173.527 216.543 174.131 215.978 174.574C215.414 175.017 214.681 175.268 213.917 175.282Z" fill="url(#paint2_linear_407_214)"/>
<path d="M202.351 146.217C207.822 141.733 208.417 134.635 203.681 130.362C198.944 126.089 190.669 126.26 185.198 130.743C179.727 135.226 179.131 142.324 183.868 146.597C188.605 150.871 196.88 150.7 202.351 146.217Z" stroke="#EF6A77" stroke-width="11.6898" stroke-miterlimit="10"/>
<path d="M187.624 148.843C183.085 147.158 180.209 143.153 180.731 138.48C181.424 132.286 187.824 127.266 195.028 127.266" stroke="white" stroke-width="11.6898" stroke-miterlimit="10" stroke-linecap="round"/>
<path d="M186.547 158.484H196.528" stroke="white" stroke-width="5.98374" stroke-miterlimit="10" stroke-linecap="round"/>
<path d="M185.46 168.202H195.442" stroke="white" stroke-width="5.98374" stroke-miterlimit="10" stroke-linecap="round"/>
<path opacity="0.4" d="M180.687 163.288H201.314" stroke="white" stroke-width="5.98374" stroke-miterlimit="10" stroke-linecap="round"/>
<path d="M154.587 175.282H106.072C105.715 175.288 105.359 175.227 105.031 175.105C104.702 174.983 104.408 174.802 104.168 174.574C103.928 174.345 103.748 174.076 103.64 173.782C103.531 173.489 103.498 173.179 103.541 172.874L109.432 120.187C109.517 119.534 109.875 118.929 110.44 118.486C111.004 118.043 111.737 117.792 112.501 117.779H161.016C161.374 117.773 161.729 117.833 162.057 117.955C162.386 118.077 162.68 118.259 162.92 118.487C163.16 118.715 163.34 118.985 163.448 119.278C163.556 119.572 163.59 119.882 163.547 120.187L157.656 172.874C157.571 173.527 157.213 174.131 156.648 174.574C156.084 175.017 155.351 175.268 154.587 175.282Z" fill="#FEBB94"/>
<path d="M143.021 146.217C148.492 141.733 149.087 134.635 144.35 130.362C139.614 126.089 131.338 126.26 125.867 130.743C120.396 135.226 119.801 142.324 124.538 146.597C129.274 150.871 137.55 150.7 143.021 146.217Z" stroke="#EF6A77" stroke-width="11.6898" stroke-miterlimit="10"/>
<path d="M147.487 138.48C146.795 144.673 140.394 149.694 133.19 149.694C125.987 149.694 120.708 144.673 121.401 138.48C122.093 132.286 128.494 127.266 135.698 127.266" stroke="white" stroke-width="11.6898" stroke-miterlimit="10" stroke-linecap="round"/>
<path d="M127.217 158.484H137.198" stroke="white" stroke-width="5.98374" stroke-miterlimit="10" stroke-linecap="round"/>
<path d="M126.13 168.202H136.111" stroke="white" stroke-width="5.98374" stroke-miterlimit="10" stroke-linecap="round"/>
<path opacity="0.4" d="M121.357 163.288H141.984" stroke="white" stroke-width="5.98374" stroke-miterlimit="10" stroke-linecap="round"/>
<path d="M209.85 212.966H101.712C101.373 212.971 101.037 212.914 100.726 212.799C100.414 212.683 100.135 212.511 99.9077 212.295C99.6805 212.078 99.5098 211.823 99.407 211.544C99.3046 211.267 99.2727 210.973 99.3133 210.683L102.54 181.823C102.621 181.204 102.96 180.63 103.496 180.211C104.031 179.791 104.725 179.553 105.45 179.54H213.587C213.926 179.535 214.263 179.592 214.574 179.707C214.885 179.823 215.164 179.995 215.392 180.211C215.619 180.428 215.79 180.683 215.892 180.961C215.995 181.239 216.027 181.533 215.986 181.823L212.759 210.683C212.678 211.302 212.339 211.875 211.804 212.295C211.269 212.715 210.574 212.953 209.85 212.966Z" fill="url(#paint3_linear_407_214)"/>
<path d="M109.243 206.274L110.768 192.63" stroke="white" stroke-width="11.6898" stroke-miterlimit="10" stroke-linecap="round"/>
<path d="M120.436 196.716L119.367 206.274" stroke="white" stroke-width="11.6898" stroke-miterlimit="10" stroke-linecap="round"/>
<path d="M130.195 199.98L129.492 206.274" stroke="white" stroke-width="11.6898" stroke-miterlimit="10" stroke-linecap="round"/>
<path d="M141.538 189.084L139.616 206.274" stroke="white" stroke-width="11.6898" stroke-miterlimit="10" stroke-linecap="round"/>
<path d="M150.444 199.98L149.74 206.274" stroke="white" stroke-width="11.6898" stroke-miterlimit="10" stroke-linecap="round"/>
<path d="M161.702 189.843L159.865 206.274" stroke="white" stroke-width="11.6898" stroke-miterlimit="10" stroke-linecap="round"/>
<path d="M170.752 199.452L169.989 206.274" stroke="white" stroke-width="11.6898" stroke-miterlimit="10" stroke-linecap="round"/>
<path d="M180.519 202.64L180.113 206.274" stroke="white" stroke-width="11.6898" stroke-miterlimit="10" stroke-linecap="round"/>
<path d="M191.763 192.63L190.237 206.274" stroke="white" stroke-width="11.6898" stroke-miterlimit="10" stroke-linecap="round"/>
<path d="M202.468 187.435L200.362 206.274" stroke="white" stroke-width="11.6898" stroke-miterlimit="10" stroke-linecap="round"/>
<path d="M112.045 102.566L118.123 110.751C118.397 111.12 118.49 111.568 118.383 111.996C118.274 112.424 117.974 112.799 117.547 113.038L116.565 113.586C114.921 114.505 112.944 114.879 111.004 114.639C109.063 114.399 107.289 113.561 106.013 112.282L97.948 104.196L112.045 102.566Z" fill="#FFCCB3"/>
<path d="M107.408 105.715C107.408 105.715 109.658 112.359 114.179 114.49C115.353 114.099 116.481 113.613 117.547 113.038L112.477 105.715" fill="#FCBA9F"/>
<path d="M3.43848 135.591L27.3096 125.755C29.5588 124.828 31.4605 123.378 32.7989 121.568L55.8593 90.3792C57.2948 88.4376 59.3771 86.9121 61.835 86.0018L95.0489 73.699L87.9382 119.932L87.813 121.64C87.813 121.64 79.0282 141.202 57.4966 148.309L23.0718 166.412L3.43848 135.591Z" fill="#FFCCB3"/>
<path d="M29.4166 124.67C29.4166 124.67 40.7085 148.903 57.4967 148.309L46.7779 153.945C46.7779 153.945 10.3963 148.143 24.0149 127.065L29.4166 124.67Z" fill="#FCBA9F"/>
<path d="M89.9079 82.2551C89.9079 82.2551 78.1645 88.3733 78.7874 102.566L92.8901 98.0345L89.9079 82.2551Z" fill="#FCBA9F"/>
<path d="M119.408 102.566L125.486 110.751C125.76 111.12 125.853 111.568 125.745 111.996C125.638 112.424 125.337 112.799 124.91 113.038L123.928 113.586C122.283 114.505 120.307 114.879 118.367 114.639C116.426 114.399 114.652 113.561 113.376 112.282L105.311 104.196L119.408 102.566Z" fill="#FFCCB3"/>
<path d="M209.252 105.793L94.4697 105.706C94.0008 105.716 93.5345 105.641 93.1025 105.485C92.67 105.329 92.2815 105.095 91.9625 104.799C91.6434 104.503 91.4018 104.153 91.2531 103.77C91.1044 103.388 91.0524 102.982 91.1006 102.581L97.2887 43.5035C97.401 42.6509 97.8717 41.8633 98.613 41.2889C99.3539 40.7145 100.314 40.3929 101.312 40.3848L216.094 40.4728C216.563 40.4617 217.029 40.5371 217.462 40.6933C217.894 40.8496 218.283 41.0834 218.601 41.3789C218.92 41.6747 219.162 42.0257 219.311 42.408C219.459 42.7905 219.511 43.196 219.464 43.5968L213.276 102.675C213.163 103.527 212.692 104.315 211.951 104.889C211.21 105.464 210.25 105.785 209.252 105.793Z" fill="#FFBE55"/>
<path d="M102.069 75.4332C102.069 75.4332 112.373 73.6415 115.146 77.7985C117.919 81.9551 120.31 89.7615 127.687 88.7552C135.065 87.7487 140.713 67.3394 147.966 67.5257C155.219 67.7119 152.662 81.0787 160.557 81.2653C168.451 81.4518 167.047 73.7988 172.309 74.0121C178.691 74.2707 176.312 90.1287 184.634 90.3156C192.957 90.5025 194.315 69.3688 206.896 69.7397" stroke="white" stroke-width="7.56507" stroke-miterlimit="10" stroke-linecap="round"/>
<path d="M107.93 50.2792L128.124 50.2942" stroke="white" stroke-width="11.9991" stroke-miterlimit="10" stroke-linecap="round"/>
<path opacity="0.4" d="M107.096 58.2383L148.829 58.2697" stroke="white" stroke-width="11.9991" stroke-miterlimit="10" stroke-linecap="round"/>
<path d="M68.0216 105.5L82.746 99.924L97.8039 91.0867C101.764 88.7627 110.034 87.7158 113.011 90.9467C116.04 94.2331 112.638 100.734 108.965 103.492L95.049 113.94L87.8127 121.64L68.0216 105.5Z" fill="#FFCCB3"/>
<path d="M97.948 94.4426C97.948 94.4426 99.9359 101.033 105.09 102.173L110.556 98.2026C111.111 97.8477 111.575 97.3995 111.921 96.8855C112.268 96.3712 112.488 95.8017 112.57 95.212C112.652 94.6219 112.594 94.0238 112.398 93.454C112.202 92.8842 111.874 92.3545 111.432 91.8975C110.661 91.0991 109.585 90.5622 108.396 90.3828C107.207 90.2038 105.983 90.3936 104.942 90.9187L97.948 94.4426Z" stroke="#FF967C" stroke-width="3" stroke-linecap="round"/>
<path d="M28.2167 124.94C28.2167 124.94 25.3631 142.486 50.1952 152.533C50.1952 152.533 32.357 166.602 25.4796 168.967C18.6026 171.333 -7.23663 147.158 1.95371 133.437C4.53106 129.59 28.2167 124.94 28.2167 124.94Z" fill="#FFBE55"/>
<path d="M122.305 106.468C122.305 106.468 112.627 106.637 109.258 108.153L106.826 105.715L121.747 105.715L122.305 106.468Z" fill="#FCBA9F"/>
<path d="M300.512 105.793H231.695C226.511 105.793 222.681 102.18 223.14 97.7231L232.373 8.0699C232.832 3.61322 237.406 0 242.59 0H311.408C316.593 0 320.421 3.61322 319.962 8.0699L310.729 97.7231C310.269 102.18 305.694 105.793 300.512 105.793Z" fill="#FEBB94"/>
<path d="M290.66 50.6233C301.559 41.66 302.656 27.4423 293.115 18.8671C283.573 10.292 267.004 10.6064 256.107 19.5697C245.21 28.5329 244.112 42.7507 253.654 51.3258C263.196 59.9013 279.765 59.5865 290.66 50.6233Z" fill="white"/>
<path d="M274.842 35.7943L292.117 49.3405C292.117 49.3405 296.047 45.7087 297.22 43.1131L274.842 35.7943Z" fill="url(#paint4_linear_407_214)"/>
<path d="M275.993 9.77283L273.538 33.6078C273.483 34.0419 273.578 34.4803 273.809 34.869C274.041 35.2575 274.4 35.5791 274.842 35.7944L298.282 47.0137C298.282 47.0137 312.2 13.6281 275.993 9.77283Z" fill="#1C85E8"/>
<path d="M239.305 74.0613H267.814" stroke="white" stroke-width="12" stroke-miterlimit="10" stroke-linecap="round"/>
<path d="M237.218 94.3264H265.727" stroke="white" stroke-width="12" stroke-miterlimit="10" stroke-linecap="round"/>
<path opacity="0.4" d="M238.273 84.0793H297.189" stroke="white" stroke-width="12" stroke-miterlimit="10" stroke-linecap="round"/>
<path d="M215.879 171.84C215.879 171.84 225.069 169.733 229.96 174.261C229.96 174.261 238.752 172.889 242.326 177.093C242.326 177.093 250.12 177.482 252.377 180.215C254.254 180.438 256.029 181.084 257.521 182.088C259.013 183.092 260.17 184.418 260.872 185.931C263.003 190.25 261.195 215.218 259.077 224.165C258.547 226.403 258.729 228.722 259.602 230.878L264.991 244.192L227.709 257.592L218.857 237.743C218.857 237.743 208.083 222.856 206.544 220.21C205.005 217.563 207.614 195.602 202.359 181.882L215.879 171.84Z" fill="#FFCCB3"/>
<path d="M223.666 248.526L222.591 246.114C222.591 246.114 241.936 245.051 259.602 230.878L261.292 235.053C261.292 235.053 259.11 243.677 249.175 247.741C239.24 251.806 223.666 248.526 223.666 248.526Z" fill="#FCBA9F"/>
<path d="M223.666 248.526C223.666 248.526 247.083 250.36 261.292 235.053C261.292 235.053 266.538 237.418 274.594 254.731C277.068 260.048 235.753 278.981 229.072 271.111C229.072 271.111 223.305 260.623 223.666 248.526Z" fill="#FFBC6E"/>
<path d="M204.65 190.164C204.65 190.164 203.843 193.848 200.024 193.849C197.532 193.849 186.732 191.043 179.524 189.093C177.562 188.562 175.458 188.562 173.497 189.093C171.536 189.623 169.811 190.659 168.557 192.06L168.119 192.549C167.901 192.792 167.743 193.069 167.654 193.366C167.565 193.663 167.547 193.972 167.601 194.274C167.655 194.577 167.78 194.867 167.968 195.127C168.156 195.387 168.404 195.612 168.696 195.787C174.799 199.45 191.278 209.392 193.386 211.204C195.98 213.434 210.424 225.937 210.424 225.937L204.65 190.164Z" fill="#FFCCB3"/>
<path d="M203.774 186.472C203.774 186.472 211.58 195.557 210.424 197.545C209.269 199.534 197.165 193.454 197.165 193.454C197.165 193.454 206.932 195.614 203.774 186.472Z" fill="#FCBA9F"/>
<path d="M202.359 181.882L189.224 147.587C188.774 146.41 188.602 145.168 188.72 143.933C188.839 142.699 189.244 141.498 189.913 140.401C190.581 139.304 191.499 138.333 192.612 137.546C193.725 136.76 195.01 136.174 196.391 135.822C197.522 135.535 198.736 135.613 199.804 136.041C200.873 136.47 201.723 137.219 202.193 138.149L220.62 174.568L202.359 181.882Z" fill="#FFCCB3"/>
<path d="M196.663 167.01C197.035 167.536 197.53 167.99 198.116 168.343C198.702 168.697 199.366 168.943 200.068 169.065" stroke="#FF967C" stroke-width="3" stroke-linecap="round"/>
<path d="M201.389 149.453C202.987 148.844 204.75 147.993 205.509 147L200.617 137.015C200.513 136.8 200.356 136.607 200.158 136.447C199.959 136.288 199.724 136.167 199.467 136.092C199.21 136.017 198.938 135.99 198.668 136.013C198.398 136.035 198.136 136.107 197.901 136.222C196.161 137.086 193.863 138.644 193.774 140.882L197.082 147.96C197.245 148.305 197.486 148.619 197.793 148.883C198.099 149.146 198.465 149.354 198.866 149.493C199.268 149.633 199.699 149.701 200.133 149.694C200.566 149.687 200.993 149.605 201.389 149.453Z" stroke="#FF967C" stroke-width="3" stroke-linecap="round"/>
<path d="M219.138 171.638L223.666 180.215" stroke="#FF967C" stroke-width="3" stroke-linecap="round"/>
<path d="M230.141 174.437C232.443 177.273 233.676 180.648 233.675 184.107" stroke="#FF967C" stroke-width="3" stroke-linecap="round"/>
<path d="M242.542 177.254C242.542 177.254 244.822 181.749 245.01 185.303" stroke="#FF967C" stroke-width="3" stroke-linecap="round"/>
<path d="M252.696 180.481C253.594 182.378 253.942 184.434 253.711 186.472" stroke="#FF967C" stroke-width="3" stroke-linecap="round"/>
<path d="M178.341 199.98C178.341 199.98 181.038 197.035 180.113 195.558C179.188 194.08 175.072 191.991 172.694 192.219C171.559 192.366 170.463 192.686 169.46 193.166C169.278 193.248 169.124 193.369 169.013 193.519C168.902 193.668 168.839 193.839 168.828 194.016C168.819 194.193 168.862 194.369 168.955 194.526C169.049 194.684 169.189 194.818 169.361 194.915L178.341 199.98Z" stroke="#FF967C" stroke-width="3" stroke-linecap="round"/>
<path d="M131.957 235.892H49.7821C49.4429 235.897 49.1064 235.84 48.795 235.725C48.4835 235.609 48.2047 235.437 47.9775 235.221C47.7499 235.004 47.5791 234.748 47.4767 234.47C47.3739 234.193 47.342 233.899 47.383 233.609L50.6098 204.748C50.6903 204.129 51.0298 203.557 51.5651 203.137C52.1003 202.717 52.7946 202.479 53.5191 202.466H135.694C136.033 202.461 136.37 202.518 136.681 202.633C136.992 202.749 137.271 202.921 137.499 203.137C137.726 203.354 137.897 203.609 138 203.887C138.102 204.165 138.134 204.459 138.093 204.748L134.866 233.609C134.786 234.228 134.446 234.801 133.911 235.221C133.376 235.641 132.681 235.879 131.957 235.892Z" fill="#FEBB94"/>
<path d="M57.4967 209.993H108.21" stroke="#EF6A77" stroke-width="11.6898" stroke-miterlimit="10" stroke-linecap="round"/>
<path d="M57.4967 209.993H92.7379" stroke="white" stroke-width="11.6898" stroke-miterlimit="10" stroke-linecap="round"/>
<path d="M56.7379 219.179H107.452" stroke="#EF6A77" stroke-width="11.6898" stroke-miterlimit="10" stroke-linecap="round"/>
<path d="M56.7379 219.179H77.8075" stroke="white" stroke-width="11.6898" stroke-miterlimit="10" stroke-linecap="round"/>
<path d="M55.0798 228.365H105.794" stroke="#EF6A77" stroke-width="11.6898" stroke-miterlimit="10" stroke-linecap="round"/>
<path d="M55.0798 228.365H67.9647" stroke="white" stroke-width="11.6898" stroke-miterlimit="10" stroke-linecap="round"/>
<path d="M126.162 212.598C127.836 212.598 129.192 211.432 129.192 209.993C129.192 208.554 127.836 207.388 126.162 207.388C124.489 207.388 123.132 208.554 123.132 209.993C123.132 211.432 124.489 212.598 126.162 212.598Z" fill="white"/>
<path d="M125.179 221.382C126.853 221.382 128.21 220.216 128.21 218.777C128.21 217.338 126.853 216.172 125.179 216.172C123.506 216.172 122.149 217.338 122.149 218.777C122.149 220.216 123.506 221.382 125.179 221.382Z" fill="white"/>
<path d="M124.083 230.97C125.756 230.97 127.113 229.804 127.113 228.365C127.113 226.926 125.756 225.76 124.083 225.76C122.409 225.76 121.052 226.926 121.052 228.365C121.052 229.804 122.409 230.97 124.083 230.97Z" fill="white"/>
</g>
<defs>
<linearGradient id="paint0_linear_407_214" x1="147.647" y1="-32.8327" x2="228.045" y2="435.775" gradientUnits="userSpaceOnUse">
<stop stop-color="white"/>
<stop offset="1" stop-color="#94B9FF"/>
</linearGradient>
<linearGradient id="paint1_linear_407_214" x1="160.364" y1="46.061" x2="168.09" y2="185.944" gradientUnits="userSpaceOnUse">
<stop stop-color="white"/>
<stop offset="1" stop-color="#94B9FF"/>
</linearGradient>
<linearGradient id="paint2_linear_407_214" x1="191.379" y1="117.642" x2="204.051" y2="239.679" gradientUnits="userSpaceOnUse">
<stop stop-color="white"/>
<stop offset="1" stop-color="#94B9FF"/>
</linearGradient>
<linearGradient id="paint3_linear_407_214" x1="154.744" y1="179.461" x2="156.969" y2="251.094" gradientUnits="userSpaceOnUse">
<stop stop-color="white"/>
<stop offset="1" stop-color="#94B9FF"/>
</linearGradient>
<linearGradient id="paint4_linear_407_214" x1="285.473" y1="35.762" x2="287.373" y2="64.6959" gradientUnits="userSpaceOnUse">
<stop stop-color="white"/>
<stop offset="1" stop-color="#94B9FF"/>
</linearGradient>
</defs>
</svg>
