<svg width="293" height="270" viewBox="0 0 293 270" fill="none" xmlns="http://www.w3.org/2000/svg">
<path d="M215.196 258.169L215.196 258.17C184.802 267.891 143.272 258.957 111.987 244.141C80.8352 229.349 59.8971 208.672 40.3022 186.209C20.6833 163.719 2.49048 139.56 0.666273 112.432L0.666174 112.43C-1.23549 85.2906 13.2326 55.1363 41.8604 44.7075C56.2317 39.492 74.201 39.2158 93.6405 40.6198C103.243 41.3133 113.186 42.415 123.215 43.5262L123.563 43.5648C133.706 44.6886 143.933 45.8173 153.961 46.5351C165.972 47.3947 177.717 47.6643 188.887 47.9208C196.339 48.0918 203.536 48.2571 210.384 48.5877C227.549 49.4163 242.591 51.2835 254.369 56.8306L254.582 56.3782L254.369 56.8306C277.889 67.9065 288.643 93.6539 291.472 118.648C294.296 143.601 289.265 167.677 277.039 193.914C264.796 220.185 245.489 248.508 215.196 258.169Z" stroke="white"/>
<path d="M210.326 238.009L210.326 238.009C183.031 246.363 145.728 238.686 117.625 225.951C89.6459 213.238 70.8406 195.468 53.239 176.16C35.6098 156.822 19.2856 136.071 17.649 112.783L17.6489 112.781C15.9433 89.4885 28.9194 63.5936 54.6192 54.6353C67.5236 50.1542 83.6618 49.9162 101.126 51.1232C109.752 51.7194 118.685 52.6665 127.695 53.6218L128.007 53.6549C137.12 54.621 146.309 55.5914 155.319 56.2085C166.11 56.9475 176.664 57.1794 186.7 57.3999C193.395 57.547 199.86 57.689 206.011 57.9731C221.432 58.6855 234.941 60.2908 245.515 65.0563L245.72 64.6004L245.515 65.0563C266.622 74.5676 276.274 96.6751 278.813 118.144C281.348 139.574 276.833 160.255 265.853 182.801C254.859 205.376 237.524 229.709 210.326 238.009Z" stroke="white"/>
<path d="M202.655 207.937L202.655 207.937C179.41 214.071 147.64 208.433 123.71 199.083C99.8876 189.75 83.8793 176.706 68.894 162.533C61.3954 155.441 54.1702 148.088 48.6452 140.367C43.1206 132.647 39.319 124.591 38.6263 116.091L38.6262 116.089C37.1823 99.0878 48.1654 80.112 70.0445 73.5362C81.0321 70.2463 94.7757 70.0713 109.651 70.9577C116.998 71.3955 124.605 72.091 132.279 72.7925L132.546 72.8168C140.307 73.5263 148.133 74.239 155.807 74.6922C164.998 75.2349 173.987 75.4052 182.535 75.5671C188.238 75.6751 193.744 75.7794 198.983 75.9881C212.118 76.5113 223.621 77.6903 232.622 81.1882L232.803 80.7222L232.622 81.1882C250.572 88.1622 258.761 104.355 260.917 120.068C263.068 135.755 259.239 150.903 249.899 167.44C240.548 183.995 225.804 201.845 202.655 207.937Z" stroke="white"/>
<path d="M180.965 270C193.696 246.485 218.515 234.427 219.873 205.556C219.918 203.418 171.917 180.707 149.522 181.088C127.128 181.47 97.8161 270 97.8161 270H180.965Z" fill="#FFCCB3"/>
<path d="M226.867 16.1292H83.2303V203.896H226.867V16.1292Z" fill="#EAEFFF"/>
<path d="M212.557 98.3398H97.5492V131.008H212.557V98.3398Z" fill="white"/>
<path d="M144.374 107.756H196.94" stroke="#B0C3FA" stroke-width="4.78" stroke-linecap="round" stroke-linejoin="round"/>
<path d="M144.374 117.865H165.728" stroke="#B0C3FA" stroke-width="4.78" stroke-linecap="round" stroke-linejoin="round"/>
<path d="M120.455 123.584C127.164 123.584 132.602 119.594 132.602 114.673C132.602 109.751 127.164 105.761 120.455 105.761C113.746 105.761 108.308 109.751 108.308 114.673C108.308 119.594 113.746 123.584 120.455 123.584Z" fill="#ECC953"/>
<path d="M198.7 242.463C208.259 231.583 216.828 220.531 217.61 203.896" stroke="#1B3C87" stroke-width="4.78" stroke-linecap="round" stroke-linejoin="round"/>
<path d="M178.703 268.341C181.406 263.46 184.654 258.752 188.416 254.265" stroke="#1B3C87" stroke-width="4.78" stroke-linecap="round" stroke-linejoin="round"/>
<path d="M212.557 50.3776H97.5492V83.0461H212.557V50.3776Z" fill="white"/>
<path d="M226.867 16.1292H83.2303V35.4654H226.867V16.1292Z" fill="#FFBE55"/>
<path d="M226.867 184.557H83.2303V203.893H226.867V184.557Z" fill="#D6DFFF"/>
<path d="M144.374 25.7974H165.728" stroke="#1B3C87" stroke-width="4.78" stroke-linecap="round" stroke-linejoin="round"/>
<path d="M155.051 198.868C158.546 198.868 161.38 196.789 161.38 194.225C161.38 191.66 158.546 189.582 155.051 189.582C151.555 189.582 148.722 191.66 148.722 194.225C148.722 196.789 151.555 198.868 155.051 198.868Z" fill="#B0C3FA"/>
<path d="M62.1932 270C68.9793 251.082 70.3366 178.728 62.1932 162.134C73.9559 155.828 122.364 128.944 129.603 124.629C136.389 127.948 133.222 155.496 111.054 167.444V175.741C122.816 175.741 140.461 204.616 130.507 235.151C124.757 248.526 142.564 270 142.564 270H62.1932Z" fill="#FFCCB3"/>
<path d="M119.984 181.048C128.616 191.433 135.231 212.054 128.245 233.488" stroke="#1B3C87" stroke-width="4.78" stroke-linecap="round" stroke-linejoin="round"/>
<path d="M120.455 126.92C123.685 125.091 126.11 123.703 127.341 122.97C134.127 126.289 130.96 153.836 108.792 165.785V171.822" stroke="#1B3C87" stroke-width="4.78" stroke-linecap="round" stroke-linejoin="round"/>
<path d="M66.7309 156.777C76.9328 151.194 93.5725 141.974 106.996 134.487" stroke="#1B3C87" stroke-width="4.78" stroke-linecap="round" stroke-linejoin="round"/>
<path d="M59.9311 268.34C65.2786 253.435 67.2511 205.366 63.8671 177.524" stroke="#1B3C87" stroke-width="4.78" stroke-linecap="round" stroke-linejoin="round"/>
<path d="M186.982 59.7935H196.94" stroke="#B0C3FA" stroke-width="4.78" stroke-linecap="round" stroke-linejoin="round"/>
<path d="M144.374 59.7935H177.025" stroke="#B0C3FA" stroke-width="4.78" stroke-linecap="round" stroke-linejoin="round"/>
<path d="M144.374 69.903H165.728" stroke="#B0C3FA" stroke-width="4.78" stroke-linecap="round" stroke-linejoin="round"/>
<path d="M120.455 75.6215C127.164 75.6215 132.602 71.6318 132.602 66.7101C132.602 61.7885 127.164 57.7987 120.455 57.7987C113.746 57.7987 108.308 61.7885 108.308 66.7101C108.308 71.6318 113.746 75.6215 120.455 75.6215Z" fill="#FB5D64"/>
<path d="M241.914 155.386C275.316 171.762 221.239 202.847 206.798 211.434C203.061 209.469 200.469 182.801 241.914 155.386Z" fill="#FFCCB3"/>
<path d="M216.33 202.605C211.539 205.649 207.305 208.125 204.536 209.774C199.338 207.706 201.129 192.632 215.846 175.831" stroke="#1B3C87" stroke-width="4.78" stroke-linecap="round" stroke-linejoin="round"/>
<path d="M239.652 153.727C257.934 162.688 250.008 176.057 236.72 187.733" stroke="#1B3C87" stroke-width="4.78" stroke-linecap="round" stroke-linejoin="round"/>
<path d="M256.355 39.8399C259.663 39.8399 262.345 37.8725 262.345 35.4456C262.345 33.0187 259.663 31.0513 256.355 31.0513C253.047 31.0513 250.365 33.0187 250.365 35.4456C250.365 37.8725 253.047 39.8399 256.355 39.8399Z" stroke="#B0C3FA" stroke-width="4.78" stroke-linecap="round" stroke-linejoin="round"/>
<path d="M235 13.2949C235 13.1589 235 13.0195 235 12.8801C235 10.6755 236.005 8.53422 237.856 6.79704C239.706 5.05986 242.295 3.82655 245.211 3.29334C248.127 2.76014 251.202 2.95768 253.947 3.85452C256.693 4.75137 258.95 6.29599 260.361 8.24263C261.771 10.1893 262.254 12.4261 261.732 14.5972C261.21 16.7683 259.713 18.7489 257.479 20.2239C255.246 21.6989 252.404 22.5836 249.406 22.7371C246.409 22.8907 243.427 22.3043 240.936 21.0713" stroke="#B0C3FA" stroke-width="4.78" stroke-linecap="round" stroke-linejoin="round"/>
<path d="M276.194 23.3897C274.263 22.9639 272.567 22.0983 271.351 20.9183C270.135 19.7383 269.462 18.305 269.43 16.8259C269.398 15.3467 270.008 13.8985 271.172 12.6907C272.337 11.4829 273.995 10.5781 275.906 10.1074C277.818 9.63667 279.884 9.62437 281.806 10.0723C283.728 10.5202 285.406 11.405 286.596 12.5988C287.787 13.7926 288.429 15.2334 288.43 16.7127C288.431 18.192 287.79 19.6331 286.6 20.8275" stroke="#B0C3FA" stroke-width="4.78" stroke-linecap="round" stroke-linejoin="round"/>
<path d="M276.194 23.3897C274.263 22.9639 272.567 22.0983 271.351 20.9183C270.135 19.7383 269.462 18.305 269.43 16.8259C269.398 15.3467 270.008 13.8985 271.172 12.6907C272.337 11.4829 273.995 10.5781 275.906 10.1074C277.818 9.63667 279.884 9.62437 281.806 10.0723C283.728 10.5202 285.406 11.405 286.596 12.5988C287.787 13.7926 288.429 15.2334 288.43 16.7127C288.431 18.192 287.79 19.6331 286.6 20.8275" stroke="#B0C3FA" stroke-width="4.78" stroke-linecap="round" stroke-linejoin="round"/>
<path d="M230.038 140.56C194.75 156.159 190.678 190.013 195.202 192.004C207.87 188.353 254.921 150.185 254.921 132.595C254.921 128.612 239.186 121.078 235.571 119.999C233.544 119.419 235.702 116.972 228.486 121.868C228.532 126.73 228.016 135.808 230.038 140.56Z" fill="#FFCCB3"/>
<path d="M233.309 118.34C236.928 119.419 252.659 126.953 252.659 130.935C252.659 135.25 249.813 140.833 245.334 146.827" stroke="#1B3C87" stroke-width="4.78" stroke-linecap="round" stroke-linejoin="round"/>
<path d="M227.645 165.778C214.276 178.015 199.288 188.516 192.94 190.338C188.416 188.347 192.488 154.493 227.776 138.894" stroke="#1B3C87" stroke-width="4.78" stroke-linecap="round" stroke-linejoin="round"/>
<path d="M229.133 98.4095C236.372 94.4268 261.707 76.5044 264.422 73.8492C270.303 72.5216 280.708 93.4311 229.133 123.966" fill="#FFCCB3"/>
<path d="M247.388 108.24C241.067 113.319 234.206 118.023 226.871 122.306" stroke="#1B3C87" stroke-width="4.78" stroke-linecap="round" stroke-linejoin="round"/>
<path d="M226.871 96.7501C234.11 92.7674 259.445 74.845 262.16 72.1898C266.322 71.2506 272.755 81.4597 257.848 98.3399" stroke="#1B3C87" stroke-width="4.78" stroke-linecap="round" stroke-linejoin="round"/>
</svg>
