<svg width="334" height="189" viewBox="0 0 334 189" fill="none" xmlns="http://www.w3.org/2000/svg">
<path opacity="0.1" d="M54.1705 54.0925C113.629 40.4075 119.996 6.98251 158.424 7.00001C196.851 7.01751 201.183 40.7225 236.722 28.805C272.262 16.8875 305.262 25.9525 309.68 77.63C314.099 129.308 296.129 170.503 200.017 151.865C103.905 133.228 117.491 181.3 74.2627 175.035C31.034 168.788 -5.28847 67.7775 54.1705 54.0925Z" fill="#2A94F4"/>
<path opacity="0.1" d="M166.008 187.81C207.253 187.81 240.689 183.493 240.689 178.167C240.689 172.842 207.253 168.525 166.008 168.525C124.764 168.525 91.3281 172.842 91.3281 178.167C91.3281 183.493 124.764 187.81 166.008 187.81Z" fill="#34C3EA"/>
<path d="M155.345 110.145H176.672V175.315H155.345V110.145Z" fill="#0B4870"/>
<path d="M75.5849 147.857H256.415C257.337 147.857 258.085 147.105 258.085 146.177V18.8475C258.085 17.92 257.337 17.1675 256.415 17.1675H75.5849C74.6629 17.1675 73.9149 17.92 73.9149 18.8475V146.195C73.9149 147.122 74.6629 147.857 75.5849 147.857Z" fill="#0E538C"/>
<path d="M160.059 136.763C160.059 140.07 162.721 142.748 166.008 142.748C169.296 142.748 171.958 140.07 171.958 136.763C171.958 133.455 169.296 130.795 166.008 130.795C162.721 130.778 160.059 133.455 160.059 136.763Z" fill="#163C47"/>
<path d="M118.031 167.562H213.986V178.167H118.031V167.562Z" fill="#0E538C"/>
<path d="M251.248 124.101L80.421 124.101V23.5634L251.248 23.5634V124.101Z" fill="#CCE9FF"/>
<path d="M87.8663 31.045H243.524V40.67H87.8663V31.045Z" fill="#2A94F4"/>
<path d="M87.8663 40.67H243.524V100.03H87.8663V40.67Z" fill="#F7F7F7"/>
<path d="M83.3608 75.9325H155.275V116.725H83.3608V75.9325Z" fill="#31A1F4"/>
<path d="M83.3608 71.89H156.319V75.9325H83.3608V71.89Z" fill="#D3D3D3"/>
<path d="M116.343 81.2525H144.455V81.7425H116.343V81.2525ZM86.6138 79.4325H150.544V79.9225H86.6138V79.4325ZM86.6138 81.2525H114.726V81.7425H86.6138V81.2525ZM145.812 81.2525H150.544V81.7425H145.812V81.2525Z" fill="white"/>
<path d="M120.8 85.862H92.6884V85.372H120.8V85.862Z" fill="white"/>
<path d="M150.53 87.6946L86.6006 87.6946V87.2046L150.53 87.2046V87.6946Z" fill="white"/>
<path d="M150.533 85.862H122.421V85.372H150.533V85.862Z" fill="white"/>
<path d="M91.3264 85.862H86.5947V85.372H91.3264V85.862Z" fill="white"/>
<path d="M86.6138 83.0725H150.544V83.5625H86.6138V83.0725ZM116.343 91.42H144.455V91.91H116.343V91.42ZM86.6138 89.6H150.544V90.09H86.6138V89.6ZM86.6138 91.42H114.726V91.91H86.6138V91.42ZM145.812 91.42H150.544V91.91H145.812V91.42Z" fill="white"/>
<path d="M120.8 96.0452H92.6884V95.5552H120.8V96.0452Z" fill="white"/>
<path d="M150.53 97.8603L86.6006 97.8603V97.3703L150.53 97.3703V97.8603Z" fill="white"/>
<path d="M150.533 96.0452H122.421V95.5552H150.533V96.0452Z" fill="white"/>
<path d="M91.3264 96.0452H86.5947V95.5552H91.3264V96.0452Z" fill="white"/>
<path d="M86.6138 93.24H150.544V93.73H86.6138V93.24Z" fill="white"/>
<path d="M153.657 75.9325H156.302V116.725H153.657V75.9325Z" fill="#ADCFE0"/>
<path d="M161.659 57.82H243.524V67.445H161.659V57.82Z" fill="#31A1F4"/>
<path d="M161.659 67.445H243.524V116.707H161.659V67.445Z" fill="#F7F7F7"/>
<path d="M155.814 76.51H154.144C153.866 76.51 153.657 76.7375 153.657 77V78.9425C153.657 79.2225 153.884 79.4325 154.144 79.4325H155.814C156.093 79.4325 156.302 79.205 156.302 78.9425V77C156.319 76.7375 156.093 76.51 155.814 76.51Z" fill="#E9F8FF"/>
<path d="M185.282 129.581L191.947 120.807L214.49 138.137L207.826 146.911L185.282 129.581Z" fill="#FFBE55"/>
<path opacity="0.08" d="M185.282 129.581L191.947 120.807L214.49 138.137L207.826 146.911L185.282 129.581Z" fill="black"/>
<path d="M250.761 169.558L247.473 173.88C245.351 176.68 241.367 177.223 238.584 175.07L202.835 147.595L213.83 133.14L249.578 160.615C252.361 162.75 252.883 166.758 250.761 169.558Z" fill="#FFBE55"/>
<path d="M147.899 147.298C178.269 147.298 202.888 122.531 202.888 91.98C202.888 61.429 178.269 36.6625 147.899 36.6625C117.53 36.6625 92.9111 61.429 92.9111 91.98C92.9111 122.531 117.53 147.298 147.899 147.298Z" fill="#FFBE55"/>
<mask id="mask0_310_11" style="mask-type:luminance" maskUnits="userSpaceOnUse" x="102" y="46" width="92" height="93">
<path d="M147.899 138.04C173.004 138.04 193.355 117.567 193.355 92.3125C193.355 67.0579 173.004 46.585 147.899 46.585C122.795 46.585 102.444 67.0579 102.444 92.3125C102.444 117.567 122.795 138.04 147.899 138.04Z" fill="white"/>
</mask>
<g mask="url(#mask0_310_11)">
<path d="M229.092 156.042L43.8789 156.042L43.8789 36.7265L229.092 36.7265L229.092 156.042Z" fill="#CCE9FF"/>
<path d="M51.944 35.8575H220.701V113.26H51.944V35.8575Z" fill="#F7F7F7"/>
<path d="M49.0737 70.42H176.863V142.888H49.0737V70.42Z" fill="#2A94F4"/>
<path d="M49.0737 63.2625H178.707V70.4375H49.0737V63.2625Z" fill="#D3D3D3"/>
<path d="M107.698 79.8875H157.641V80.7625H107.698V79.8875ZM54.8491 76.65H168.444V77.525H54.8491V76.65ZM54.8491 79.8875H104.793V80.7625H54.8491V79.8875ZM160.059 79.8875H168.461V80.7625H160.059V79.8875Z" fill="white"/>
<path d="M115.613 88.0915H65.6697V87.2165H115.613V88.0915Z" fill="white"/>
<path d="M168.457 91.3444L54.8627 91.3444V90.4694L168.457 90.4694V91.3444Z" fill="white"/>
<path d="M168.458 88.0915H118.514V87.2165H168.458V88.0915Z" fill="white"/>
<path d="M54.8491 83.1425H168.444V84.0175H54.8491V83.1425ZM107.698 97.965H157.641V98.84H107.698V97.965ZM54.8491 94.71H168.444V95.585H54.8491V94.71ZM54.8491 97.965H104.793V98.84H54.8491V97.965ZM160.059 97.965H168.461V98.84H160.059V97.965Z" fill="white"/>
<path d="M115.613 106.163H65.6697V105.288H115.613V106.163Z" fill="white"/>
<path d="M168.457 109.416L54.8627 109.416V108.541L168.457 108.541V109.416Z" fill="white"/>
<path d="M168.458 106.163H118.514V105.288H168.458V106.163Z" fill="white"/>
<path d="M54.8491 101.203H168.444V102.078H54.8491V101.203Z" fill="white"/>
<path d="M174.011 70.42H178.725V142.888H174.011V70.42Z" fill="#CCE9FF"/>
<path d="M178.22 71.4525H174.48C174.202 71.4525 173.993 71.68 173.993 71.9425V76.1425C173.993 76.4225 174.219 76.6325 174.48 76.6325H178.22C178.499 76.6325 178.707 76.405 178.707 76.1425V71.9425C178.707 71.68 178.499 71.4525 178.22 71.4525Z" fill="#F7F7F7"/>
<path d="M229.092 156.042L43.8789 156.042L43.8789 36.7265L229.092 36.7265L229.092 156.042Z" fill="#CCE9FF"/>
<path d="M51.944 35.8575H220.701V113.26H51.944V35.8575Z" fill="#F7F7F7"/>
<path d="M49.0737 70.42H176.863V142.888H49.0737V70.42Z" fill="#2A94F4"/>
<path d="M49.0737 63.2625H178.707V70.4375H49.0737V63.2625Z" fill="#D3D3D3"/>
<path d="M107.698 79.8875H157.641V80.7625H107.698V79.8875ZM54.8491 76.65H168.444V77.525H54.8491V76.65ZM54.8491 79.8875H104.793V80.7625H54.8491V79.8875ZM160.059 79.8875H168.461V80.7625H160.059V79.8875Z" fill="white"/>
<path d="M115.613 88.0915H65.6697V87.2165H115.613V88.0915Z" fill="white"/>
<path d="M168.457 91.3444L54.8627 91.3444V90.4694L168.457 90.4694V91.3444Z" fill="white"/>
<path d="M168.458 88.0915H118.514V87.2165H168.458V88.0915Z" fill="white"/>
<path d="M54.8491 83.1425H168.444V84.0175H54.8491V83.1425ZM107.698 97.965H157.641V98.84H107.698V97.965ZM54.8491 94.71H168.444V95.585H54.8491V94.71ZM54.8491 97.965H104.793V98.84H54.8491V97.965ZM160.059 97.965H168.461V98.84H160.059V97.965Z" fill="white"/>
<path d="M115.613 106.163H65.6697V105.288H115.613V106.163Z" fill="white"/>
<path d="M168.457 109.416L54.8627 109.416V108.541L168.457 108.541V109.416Z" fill="white"/>
<path d="M168.458 106.163H118.514V105.288H168.458V106.163Z" fill="white"/>
<path d="M54.8491 101.203H168.444V102.078H54.8491V101.203Z" fill="white"/>
<path d="M174.011 70.42H178.725V142.888H174.011V70.42Z" fill="#CCE9FF"/>
<path d="M178.22 71.4525H174.48C174.202 71.4525 173.993 71.68 173.993 71.9425V76.1425C173.993 76.4225 174.219 76.6325 174.48 76.6325H178.22C178.499 76.6325 178.707 76.405 178.707 76.1425V71.9425C178.707 71.68 178.499 71.4525 178.22 71.4525Z" fill="#F7F7F7"/>
</g>
</svg>
