<svg width="38" height="38" viewBox="0 0 38 38" fill="none" xmlns="http://www.w3.org/2000/svg">
<circle cx="19" cy="19" r="18.5" fill="white" stroke="#F5F5F7"/>
<g clip-path="url(#clip0_463_561)">
<path d="M22.8844 15.1156C25.0328 17.2641 25.0328 20.7445 22.8844 22.893C21.8102 23.9672 21.8102 25.7117 22.8844 26.7773C23.9586 27.8516 25.7031 27.8516 26.7773 26.7773C31.0742 22.4805 31.0742 15.5195 26.7773 11.2227L22.8844 15.1156Z" fill="#EA4335"/>
<path d="M26.7687 11.2227C22.4719 6.92578 15.5195 6.92578 11.2227 11.2227C6.92578 15.5195 6.92578 22.4805 11.2227 26.7773L15.1156 22.893C12.9672 20.7445 12.9672 17.2641 15.1156 15.1156C17.2641 12.9672 20.7445 12.9672 22.893 15.1156C23.9672 16.1898 25.7117 16.1898 26.7859 15.1156C27.843 14.0414 27.843 12.2969 26.7687 11.2227Z" fill="url(#paint0_linear_463_561)"/>
<path d="M26.7688 26.7773L22.8758 22.893C20.7274 25.0414 17.2469 25.0414 15.0984 22.893L11.2055 26.7773C15.5195 31.0742 22.4719 31.0742 26.7688 26.7773Z" fill="#FBBC04"/>
<path d="M22.8844 22.893C23.9586 21.8188 25.6945 21.8188 26.7687 22.893C27.843 23.9672 27.843 25.7117 26.7687 26.7859C25.6945 27.8602 23.9586 27.8602 22.8844 26.7859C21.8102 25.7117 21.8102 23.9672 22.8844 22.893Z" fill="#EA4335"/>
<path d="M11.2227 22.893C12.2969 21.8188 14.0328 21.8188 15.107 22.893C16.1812 23.9672 16.1812 25.7117 15.107 26.7859C14.0328 27.8602 12.2969 27.8602 11.2227 26.7859C10.1484 25.7117 10.1484 23.9672 11.2227 22.893Z" fill="#34A853"/>
</g>
<defs>
<linearGradient id="paint0_linear_463_561" x1="8" y1="946.867" x2="1965.64" y2="946.867" gradientUnits="userSpaceOnUse">
<stop stop-color="#246FDB"/>
<stop offset="0.0552" stop-color="#2973DF"/>
<stop offset="0.2781" stop-color="#377DEB"/>
<stop offset="0.5491" stop-color="#3F83F2"/>
<stop offset="1" stop-color="#4285F4"/>
</linearGradient>
<clipPath id="clip0_463_561">
<rect width="22" height="22" fill="white" transform="translate(8 8)"/>
</clipPath>
</defs>
</svg>
