<svg width="38" height="38" viewBox="0 0 38 38" fill="none" xmlns="http://www.w3.org/2000/svg">
<circle cx="19" cy="19" r="19" fill="white"/>
<g clip-path="url(#clip0_463_539)">
<path d="M13.5 12.9972C16.536 12.9972 19 15.4612 19 18.4972V19H8.50282C8.22627 19 8 18.7737 8 18.4972C8 15.4612 10.464 12.9972 13.5 12.9972Z" fill="#FBBB05"/>
<path d="M25.0028 13.5C25.0028 16.536 22.5388 19 19.5028 19H19V8.50282C19 8.22627 19.2263 8 19.5028 8C22.5388 8 25.0028 10.464 25.0028 13.5Z" fill="#E94335"/>
<path d="M24.5 25.0028C21.464 25.0028 19 22.5388 19 19.5028V19H29.4972C29.7737 19 30 19.2263 30 19.5028C30 22.5388 27.536 25.0028 24.5 25.0028Z" fill="#4285F4"/>
<path d="M12.9972 24.5C12.9972 21.464 15.4612 19 18.4972 19H19V29.4972C19 29.7737 18.7737 30 18.4972 30C15.4612 30 12.9972 27.536 12.9972 24.5Z" fill="#0F9D58"/>
</g>
<defs>
<clipPath id="clip0_463_539">
<rect width="22" height="22" fill="white" transform="translate(8 8)"/>
</clipPath>
</defs>
</svg>
